<svg width="95" height="156" viewBox="0 0 95 156" fill="none" xmlns="http://www.w3.org/2000/svg">
<g clip-path="url(#clip0_38_113)">
<path fill-rule="evenodd" clip-rule="evenodd" d="M23.5595 147.245C26.6711 147.245 29.2747 146.733 29.2747 146.03C29.2747 145.391 26.7346 144.816 23.5595 144.816C20.4479 144.816 17.8443 145.327 17.8443 146.03C17.8443 146.733 20.4479 147.245 23.5595 147.245Z" fill="#888888"/>
<path fill-rule="evenodd" clip-rule="evenodd" d="M17.2092 151.91C24.5755 151.91 30.6083 149.034 30.6083 145.519C30.6083 142.004 24.5755 139.128 17.2092 139.128C9.84291 139.128 3.81016 142.004 3.81016 145.519C3.81016 149.034 9.77941 151.91 17.2092 151.91Z" fill="#3E3639"/>
<path fill-rule="evenodd" clip-rule="evenodd" d="M13.9071 15.1462H24.258V146.286V147.948L24.1945 148.011L24.131 148.075L24.0675 148.139H24.004L23.9405 148.203L23.8135 148.267L23.75 148.331L23.6865 148.395H23.623L23.5595 148.459L23.496 148.523H23.4325L23.369 148.587L23.242 148.651H23.1785L23.115 148.714L23.0515 148.778H22.9245L22.861 148.842H22.7975L22.734 148.906H22.6705H22.607L22.5435 148.97H22.4164V149.034H22.3529H22.2894L22.1624 149.098H22.0989L22.0354 149.162H21.9719H21.9084L21.7814 149.226H21.7179L21.5909 149.29H21.5274H21.4639H21.4004L21.3369 149.354H21.2734H21.2099L21.0829 149.417H21.0194H20.8924L20.7654 149.481H20.7019H20.5749L20.4479 149.545H20.3844H20.2574H20.1304L20.0033 149.609H19.9398H19.8763H19.8128H19.6858H19.6223H19.5588H19.4318L19.3048 149.673H19.2413H19.1143H18.9873H18.9238H18.7968H18.7333H18.6063H18.4793H18.4158H18.2888H18.1618H18.0983H18.0348H17.9713H17.9078H17.7808H17.7172H17.6537H17.5902H17.4632H17.3997H17.3362H17.2727H17.2092L17.1457 149.609H17.0822H17.0187H16.9552H16.8917H16.8282H16.7647H16.7012H16.5742H16.5107L16.4472 149.545H16.3837H16.3202H16.2567H16.1932H16.1297L16.0027 149.481H15.9392H15.8757H15.8122H15.7487L15.6852 149.417H15.6217H15.5582H15.4947H15.4312L15.3677 149.354H15.3041H15.2406H15.1771L15.1136 149.29H15.0501H14.9866H14.9231L14.8596 149.226H14.7961H14.7326L14.6691 149.162H14.6056H14.5421L14.2881 149.098L14.2246 149.034H14.1611H14.0976L14.0341 148.97H13.9706L13.9071 148.906V146.222V15.1462Z" fill="#A37D73"/>
<path fill-rule="evenodd" clip-rule="evenodd" d="M13.9071 15.1462H24.258V16.041C22.7975 17.1274 21.0194 17.8304 19.1143 17.8304C17.1457 17.8304 15.3677 17.1913 13.9706 16.041V15.1462H13.9071Z" fill="#170603"/>
<path fill-rule="evenodd" clip-rule="evenodd" d="M19.0508 15.1462H13.9071V146.286V147.948V148.011L13.9706 148.075H14.0341L14.0976 148.139L14.1611 148.203H14.2246V148.267L14.2881 148.331H14.3516L14.4151 148.395H14.4786L14.5421 148.459L14.6056 148.523H14.6691L14.7326 148.587H14.7961L14.8596 148.651H14.9231L14.9866 148.714H15.0501L15.1136 148.778H15.1771H15.2406V148.842H15.3041L15.3677 148.906H15.4312L15.5582 148.97H15.6217H15.6852V149.034H15.7487H15.8122H15.8757L15.9392 149.098H16.0027L16.0662 149.162H16.1932H16.2567L16.3202 149.226H16.3837H16.4472L16.5107 149.29H16.6377H16.7012L16.7647 149.354H16.8917H16.9552L17.0822 149.417H17.1457H17.2092H17.2727L17.3362 149.481H17.3997H17.4632H17.5267H17.6537L17.7172 149.545H17.8443H17.9078H18.0348L18.1618 149.609H18.2253H18.3523H18.4158H18.5428H18.6698L18.7333 149.673H18.8603H18.9238H18.9873H19.0508V146.286V15.1462Z" fill="#BD9585"/>
<path fill-rule="evenodd" clip-rule="evenodd" d="M19.0508 15.1462H13.9071V16.041C15.3677 17.1274 17.1457 17.8304 19.0508 17.8304V15.1462Z" fill="#53362B"/>
<path fill-rule="evenodd" clip-rule="evenodd" d="M19.0508 0C23.75 0 27.4967 3.83449 27.4967 8.49979C27.4967 13.229 23.6865 16.9996 19.0508 16.9996C14.3516 16.9996 10.6049 13.1651 10.6049 8.49979C10.6049 3.83449 14.4151 0 19.0508 0Z" fill="#A37D73"/>
<path fill-rule="evenodd" clip-rule="evenodd" d="M14.7961 15.9131C10.7955 13.5485 9.39839 8.30805 11.748 4.21792C14.0976 0.127797 19.2413 -1.21428 23.3055 1.15033L14.7961 15.9131Z" fill="#BD9585"/>
<path fill-rule="evenodd" clip-rule="evenodd" d="M27.4967 8.49976C27.4967 13.229 23.6865 16.9996 19.0508 16.9996C14.3516 16.9996 10.6049 13.1651 10.6049 8.49976C10.6049 14.571 18.2888 15.1462 19.0508 15.1462C21.8449 15.1462 27.4967 14.0598 27.4967 8.49976Z" fill="#53362B"/>
<path fill-rule="evenodd" clip-rule="evenodd" d="M10.6049 8.49976C10.6049 13.229 14.4151 16.9996 19.0508 16.9996V15.0823C16.1932 15.1462 10.6049 13.4207 10.6049 8.49976Z" fill="#6F3E31"/>
<path fill-rule="evenodd" clip-rule="evenodd" d="M13.9071 16.9996C15.6852 17.8304 17.3362 18.3416 19.0508 18.3416C20.7019 18.3416 22.4799 18.086 24.1945 16.9996L75.2507 41.8599L24.1945 66.7202C22.607 67.4871 20.7654 68.0623 19.0508 68.0623C17.3362 68.0623 15.3677 67.4232 13.9071 66.7202C13.9071 50.1679 13.9071 33.6157 13.9071 16.9996Z" fill="#0051E8"/>
<path fill-rule="evenodd" clip-rule="evenodd" d="M19.0508 18.3416C20.7019 18.3416 22.4799 18.086 24.1945 16.9996V66.6563C22.607 67.4232 20.7654 67.9983 19.0508 67.9983V18.3416Z" fill="#0042BE"/>
<path fill-rule="evenodd" clip-rule="evenodd" d="M37.6571 60.2015L75.3142 41.8599L51.5642 30.3564L37.6571 60.2015Z" fill="#0042BE"/>
</g>
<defs>
<clipPath id="clip0_38_113">
<rect width="95" height="156" fill="white"/>
</clipPath>
</defs>
</svg>
