<svg id="Camada_1" data-name="Camada 1" xmlns="http://www.w3.org/2000/svg" xmlns:xlink="http://www.w3.org/1999/xlink" viewBox="0 0 400 400"><defs><style>.cls-1{fill:none;}.cls-2{clip-path:url(#clip-path);}.cls-3{fill:#ff003b;}.cls-4{clip-path:url(#clip-path-2);}.cls-5{fill:#fff;}</style><clipPath id="clip-path"><rect id="SVGID" class="cls-1" x="50" width="300" height="400"/></clipPath><clipPath id="clip-path-2"><rect id="SVGID-2" data-name="SVGID" class="cls-1" x="120.83" y="66.67" width="158.33" height="175"/></clipPath></defs><g class="cls-2"><path class="cls-3" d="M350,149.87C350,258.23,200,400,200,400S50,258.23,50,149.87a150,150,0,0,1,300,0Z"/><g class="cls-4"><path class="cls-5" d="M274.37,201.92l4.8-7.71L239,154.46l40.19-39.74-4.8-8.31-55.18,14.24-14.39-54h-9.6l-15,54-54.58-14.24-4.8,8.31L161,154.46l-40.19,39.75,4.8,7.71,54.58-14.24,15,54h9.6l14.39-54Z"/></g></g></svg>