<svg id="Camada_1" data-name="Camada 1" xmlns="http://www.w3.org/2000/svg" xmlns:xlink="http://www.w3.org/1999/xlink" viewBox="0 0 400 400"><defs><style>.cls-1{fill:none;}.cls-2{fill:#0051e8;}.cls-3{clip-path:url(#clip-path);}.cls-4{fill:#ff003b;}.cls-5{clip-path:url(#clip-path-2);}.cls-6{fill:#fff;}</style><clipPath id="clip-path"><rect id="SVGID" class="cls-1" x="93.15" y="57.53" width="213.7" height="284.94"/></clipPath><clipPath id="clip-path-2"><rect id="SVGID-2" data-name="SVGID" class="cls-1" x="143.61" y="105.02" width="112.79" height="124.66"/></clipPath></defs><rect class="cls-2" width="400" height="400" rx="79.5"/><g class="cls-3"><path class="cls-4" d="M306.85,164.29C306.85,241.48,200,342.47,200,342.47S93.15,241.48,93.15,164.29a106.85,106.85,0,0,1,213.7,0Z"/><g class="cls-5"><path class="cls-6" d="M253,201.37l3.41-5.5-28.62-28.31,28.62-28.31L253,133.33l-39.31,10.15L203.42,105h-6.84L185.9,143.48,147,133.33l-3.41,5.92,28.62,28.31-28.62,28.31,3.41,5.5,38.88-10.14,10.68,38.45h6.84l10.25-38.45Z"/></g></g></svg>